<svg width="18" height="18" xmlns="http://www.w3.org/2000/svg" viewBox="0 0 24 24">
  <g fill="none" fill-rule="evenodd">
    <path d="M20.66 12.693c0-.603-.054-1.182-.155-1.738H12.5v3.287h4.575c-.198 1.03-.798 1.907-1.697 2.498v2.077h2.747c1.608-1.482 2.535-3.65 2.535-6.124z" fill="#4285F4"/>
    <path d="M12.5 21c2.295 0 4.22-.76 5.625-2.06l-2.747-2.077c-.76.51-1.734.81-2.878.81-2.214 0-4.088-1.494-4.756-3.503h-2.84v2.142C6.44 18.53 9.24 21 12.5 21z" fill="#34A853"/>
    <path d="M7.744 14.17c-.17-.51-.267-1.055-.267-1.615s.097-1.105.267-1.615V8.798h-2.84C4.365 9.795 4 10.895 4 12.055s.365 2.26.904 3.257l2.84-2.142z" fill="#FBBC05"/>
    <path d="M12.5 7.38c1.248 0 2.368.428 3.25 1.272l2.437-2.438C16.715 4.842 14.79 4 12.5 4c-3.26 0-6.06 2.47-7.596 4.688l2.84 2.142c.668-2.01 2.542-3.45 4.756-3.45z" fill="#EA4335"/>
  </g>
</svg>